<svg xmlns="http://www.w3.org/2000/svg" width="1600" height="9388" viewBox="0 0 1600 9388">
<rect x="0" y="0" width="100%" height="100%" fill="#ffffff"/>
<rect x="8" y="8" width="1584" height="9372" fill="none" stroke="#d0d7de" stroke-width="1"/>
<text x="24" y="38" font-family="Menlo, Consolas, monospace" font-size="14" fill="#24292f">
  <tspan x="24" y="44"># DWH SCHEMA (FOR DATA QUALITY TEST DESIGN)</tspan>
  <tspan x="24" y="64"> </tspan>
  <tspan x="24" y="84">## LAYER FLOW</tspan>
  <tspan x="24" y="104">SOURCE -&gt; LANDING -&gt; MAPPING -&gt; NF -&gt; DIM</tspan>
  <tspan x="24" y="124"> </tspan>
  <tspan x="24" y="144">## SOURCE</tspan>
  <tspan x="24" y="164">- ONLINE CSV</tspan>
  <tspan x="24" y="184">- OFFLINE CSV</tspan>
  <tspan x="24" y="204"> </tspan>
  <tspan x="24" y="224">## LANDING</tspan>
  <tspan x="24" y="244">- sl_online_retail</tspan>
  <tspan x="24" y="264">  - frg_online_retail</tspan>
  <tspan x="24" y="284">  - src_online_retail_raw</tspan>
  <tspan x="24" y="304">  - src_online_retail</tspan>
  <tspan x="24" y="324">- sl_offline_retail</tspan>
  <tspan x="24" y="344">  - frg_offline_retail</tspan>
  <tspan x="24" y="364">  - src_offline_retail_raw</tspan>
  <tspan x="24" y="384">  - src_offline_retail</tspan>
  <tspan x="24" y="404"> </tspan>
  <tspan x="24" y="424">## MAPPING</tspan>
  <tspan x="24" y="444"> </tspan>
  <tspan x="24" y="464">### stg.mapping_customers</tspan>
  <tspan x="24" y="484">- customer_id_nk : VARCHAR(20)</tspan>
  <tspan x="24" y="504">- gender : VARCHAR(20)</tspan>
  <tspan x="24" y="524">- marital_status : VARCHAR(20)</tspan>
  <tspan x="24" y="544">- birth_of_dt : DATE</tspan>
  <tspan x="24" y="564">- membership_dt : DATE</tspan>
  <tspan x="24" y="584">- customer_zip_code : VARCHAR(30)</tspan>
  <tspan x="24" y="604">- customer_city : VARCHAR(100)</tspan>
  <tspan x="24" y="624">- customer_state : VARCHAR(100)</tspan>
  <tspan x="24" y="644">- last_purchase_dt : TIMESTAMP</tspan>
  <tspan x="24" y="664">- customer_src_id : VARCHAR(255)</tspan>
  <tspan x="24" y="684">- source_system : VARCHAR(100)</tspan>
  <tspan x="24" y="704">- source_table : VARCHAR(100)</tspan>
  <tspan x="24" y="724">- insert_dt : TIMESTAMP [DEFAULT CURRENT_TIMESTAMP]</tspan>
  <tspan x="24" y="744"> </tspan>
  <tspan x="24" y="764">### stg.mapping_stores</tspan>
  <tspan x="24" y="784">- store_src_id : VARCHAR(255)</tspan>
  <tspan x="24" y="804">- store_name : VARCHAR(100)</tspan>
  <tspan x="24" y="824">- store_zip_code : VARCHAR(30)</tspan>
  <tspan x="24" y="844">- store_city : VARCHAR(100)</tspan>
  <tspan x="24" y="864">- store_state : VARCHAR(100)</tspan>
  <tspan x="24" y="884">- store_location_nk : VARCHAR(100)</tspan>
  <tspan x="24" y="904">- source_system : VARCHAR(100)</tspan>
  <tspan x="24" y="924">- source_table : VARCHAR(100)</tspan>
  <tspan x="24" y="944">- insert_dt : TIMESTAMP [DEFAULT CURRENT_TIMESTAMP]</tspan>
  <tspan x="24" y="964"> </tspan>
  <tspan x="24" y="984">### stg.mapping_products</tspan>
  <tspan x="24" y="1004">- product_id_nk : VARCHAR(100)</tspan>
  <tspan x="24" y="1024">- product_src_id : VARCHAR(255)</tspan>
  <tspan x="24" y="1044">- product_category : VARCHAR(100)</tspan>
  <tspan x="24" y="1064">- product_name : VARCHAR(100)</tspan>
  <tspan x="24" y="1084">- product_brand : VARCHAR(100)</tspan>
  <tspan x="24" y="1104">- product_stock : INTEGER</tspan>
  <tspan x="24" y="1124">- product_material : VARCHAR(100)</tspan>
  <tspan x="24" y="1144">- product_manufacture_dt : TIMESTAMP</tspan>
  <tspan x="24" y="1164">- product_expiry_dt : TIMESTAMP</tspan>
  <tspan x="24" y="1184">- source_system : VARCHAR(100)</tspan>
  <tspan x="24" y="1204">- source_table : VARCHAR(100)</tspan>
  <tspan x="24" y="1224">- insert_dt : TIMESTAMP [DEFAULT CURRENT_TIMESTAMP]</tspan>
  <tspan x="24" y="1244"> </tspan>
  <tspan x="24" y="1264">### stg.mapping_promotions</tspan>
  <tspan x="24" y="1284">- promotion_id_nk : VARCHAR(100)</tspan>
  <tspan x="24" y="1304">- promotion_type : VARCHAR(100)</tspan>
  <tspan x="24" y="1324">- promotion_channel : VARCHAR(100)</tspan>
  <tspan x="24" y="1344">- promotion_start_dt : TIMESTAMP</tspan>
  <tspan x="24" y="1364">- promotion_end_dt : TIMESTAMP</tspan>
  <tspan x="24" y="1384">- promotion_src_id : VARCHAR(255)</tspan>
  <tspan x="24" y="1404">- source_system : VARCHAR(100)</tspan>
  <tspan x="24" y="1424">- source_table : VARCHAR(100)</tspan>
  <tspan x="24" y="1444">- insert_dt : TIMESTAMP [DEFAULT CURRENT_TIMESTAMP]</tspan>
  <tspan x="24" y="1464"> </tspan>
  <tspan x="24" y="1484">### stg.mapping_deliveries</tspan>
  <tspan x="24" y="1504">- delivery_id_nk : VARCHAR(100)</tspan>
  <tspan x="24" y="1524">- delivery_type : VARCHAR(100)</tspan>
  <tspan x="24" y="1544">- delivery_status : VARCHAR(100)</tspan>
  <tspan x="24" y="1564">- shipping_partner : VARCHAR(100)</tspan>
  <tspan x="24" y="1584">- delivery_src_id : VARCHAR(255)</tspan>
  <tspan x="24" y="1604">- source_system : VARCHAR(100)</tspan>
  <tspan x="24" y="1624">- source_table : VARCHAR(100)</tspan>
  <tspan x="24" y="1644">- insert_dt : TIMESTAMP [DEFAULT CURRENT_TIMESTAMP]</tspan>
  <tspan x="24" y="1664"> </tspan>
  <tspan x="24" y="1684">### stg.mapping_engagements</tspan>
  <tspan x="24" y="1704">- engagement_id_nk : VARCHAR(100)</tspan>
  <tspan x="24" y="1724">- customer_support_calls : INTEGER</tspan>
  <tspan x="24" y="1744">- website_address : VARCHAR(250)</tspan>
  <tspan x="24" y="1764">- order_channel : VARCHAR(100)</tspan>
  <tspan x="24" y="1784">- customer_support_method : VARCHAR(100)</tspan>
  <tspan x="24" y="1804">- issue_status : VARCHAR(100)</tspan>
  <tspan x="24" y="1824">- app_usage : VARCHAR(100)</tspan>
  <tspan x="24" y="1844">- website_visits : INTEGER</tspan>
  <tspan x="24" y="1864">- social_media_engagement : VARCHAR(100)</tspan>
  <tspan x="24" y="1884">- source_system : VARCHAR(100)</tspan>
  <tspan x="24" y="1904">- source_table : VARCHAR(100)</tspan>
  <tspan x="24" y="1924">- insert_dt : TIMESTAMP [DEFAULT CURRENT_TIMESTAMP]</tspan>
  <tspan x="24" y="1944"> </tspan>
  <tspan x="24" y="1964">### stg.mapping_employees</tspan>
  <tspan x="24" y="1984">- employee_src_id : VARCHAR(100) [NOT NULL]</tspan>
  <tspan x="24" y="2004">- employee_name_nk : VARCHAR(100)</tspan>
  <tspan x="24" y="2024">- employee_position : VARCHAR(100)</tspan>
  <tspan x="24" y="2044">- employee_salary : NUMERIC(10,2)</tspan>
  <tspan x="24" y="2064">- employee_hire_date : DATE</tspan>
  <tspan x="24" y="2084">- observed_ts : TIMESTAMP</tspan>
  <tspan x="24" y="2104">- source_system : VARCHAR(100)</tspan>
  <tspan x="24" y="2124">- source_table : VARCHAR(100)</tspan>
  <tspan x="24" y="2144">- insert_dt : TIMESTAMP [DEFAULT CURRENT_TIMESTAMP]</tspan>
  <tspan x="24" y="2164"> </tspan>
  <tspan x="24" y="2184">### stg.mapping_transactions</tspan>
  <tspan x="24" y="2204">- transaction_id : VARCHAR(100)</tspan>
  <tspan x="24" y="2224">- transaction_dt : TIMESTAMP</tspan>
  <tspan x="24" y="2244">- total_sales : NUMERIC(10,2)</tspan>
  <tspan x="24" y="2264">- payment_method : VARCHAR(100)</tspan>
  <tspan x="24" y="2284">- quantity : INTEGER</tspan>
  <tspan x="24" y="2304">- unit_price : NUMERIC(10,2)</tspan>
  <tspan x="24" y="2324">- discount_applied : NUMERIC(10,2)</tspan>
  <tspan x="24" y="2344">- day_of_week : VARCHAR(100)</tspan>
  <tspan x="24" y="2364">- week_of_year : INTEGER</tspan>
  <tspan x="24" y="2384">- month_of_year : INTEGER</tspan>
  <tspan x="24" y="2404">- customer_id_nk : VARCHAR(100)</tspan>
  <tspan x="24" y="2424">- product_id_nk : VARCHAR(100)</tspan>
  <tspan x="24" y="2444">- promotion_id_nk : VARCHAR(100)</tspan>
  <tspan x="24" y="2464">- delivery_id_nk : VARCHAR(100)</tspan>
  <tspan x="24" y="2484">- engagement_id_nk : VARCHAR(100)</tspan>
  <tspan x="24" y="2504">- employee_name_nk : VARCHAR(100)</tspan>
  <tspan x="24" y="2524">- employee_hire_date : DATE</tspan>
  <tspan x="24" y="2544">- customer_city : VARCHAR(100)</tspan>
  <tspan x="24" y="2564">- customer_state : VARCHAR(100)</tspan>
  <tspan x="24" y="2584">- store_zip_code : VARCHAR(30)</tspan>
  <tspan x="24" y="2604">- store_city : VARCHAR(100)</tspan>
  <tspan x="24" y="2624">- store_state : VARCHAR(100)</tspan>
  <tspan x="24" y="2644">- store_location_nk : VARCHAR(100)</tspan>
  <tspan x="24" y="2664">- product_name : VARCHAR(100)</tspan>
  <tspan x="24" y="2684">- product_category : VARCHAR(100)</tspan>
  <tspan x="24" y="2704">- product_brand : VARCHAR(100)</tspan>
  <tspan x="24" y="2724">- product_material : VARCHAR(100)</tspan>
  <tspan x="24" y="2744">- promotion_type : VARCHAR(100)</tspan>
  <tspan x="24" y="2764">- promotion_channel : VARCHAR(100)</tspan>
  <tspan x="24" y="2784">- promotion_start_dt : TIMESTAMP</tspan>
  <tspan x="24" y="2804">- promotion_end_dt : TIMESTAMP</tspan>
  <tspan x="24" y="2824">- delivery_type : VARCHAR(100)</tspan>
  <tspan x="24" y="2844">- shipping_partner : VARCHAR(100)</tspan>
  <tspan x="24" y="2864">- customer_src_id : VARCHAR(255)</tspan>
  <tspan x="24" y="2884">- product_src_id : VARCHAR(255)</tspan>
  <tspan x="24" y="2904">- promotion_src_id : VARCHAR(255)</tspan>
  <tspan x="24" y="2924">- delivery_src_id : VARCHAR(255)</tspan>
  <tspan x="24" y="2944">- store_src_id : VARCHAR(255)</tspan>
  <tspan x="24" y="2964">- city_src_id : VARCHAR(255)</tspan>
  <tspan x="24" y="2984">- employee_src_id : VARCHAR(255)</tspan>
  <tspan x="24" y="3004">- row_sig : TEXT [UNIQUE INDEX ux_mapping_transactions_rowsig]</tspan>
  <tspan x="24" y="3024">- source_system : VARCHAR(100)</tspan>
  <tspan x="24" y="3044">- source_table : VARCHAR(100)</tspan>
  <tspan x="24" y="3064">- insert_dt : TIMESTAMP [DEFAULT CURRENT_TIMESTAMP]</tspan>
  <tspan x="24" y="3084"> </tspan>
  <tspan x="24" y="3104">## NF</tspan>
  <tspan x="24" y="3124"> </tspan>
  <tspan x="24" y="3144">### nf.nf_states</tspan>
  <tspan x="24" y="3164">- state_id : BIGINT [PK]</tspan>
  <tspan x="24" y="3184">- state_src_id : VARCHAR(100) [NOT NULL, UNIQUE]</tspan>
  <tspan x="24" y="3204">- state_name : VARCHAR(100) [NOT NULL]</tspan>
  <tspan x="24" y="3224">- source_system : VARCHAR(100) [NOT NULL]</tspan>
  <tspan x="24" y="3244">- source_table : VARCHAR(100) [NOT NULL]</tspan>
  <tspan x="24" y="3264">- insert_dt : TIMESTAMP [DEFAULT CURRENT_TIMESTAMP]</tspan>
  <tspan x="24" y="3284"> </tspan>
  <tspan x="24" y="3304">### nf.nf_cities</tspan>
  <tspan x="24" y="3324">- city_id : BIGINT [PK]</tspan>
  <tspan x="24" y="3344">- city_src_id : VARCHAR(150) [NOT NULL, UNIQUE]</tspan>
  <tspan x="24" y="3364">- city_name : VARCHAR(100) [NOT NULL]</tspan>
  <tspan x="24" y="3384">- state_id : BIGINT [NOT NULL, FK -&gt; nf.nf_states.state_id]</tspan>
  <tspan x="24" y="3404">- source_system : VARCHAR(100)</tspan>
  <tspan x="24" y="3424">- source_table : VARCHAR(100)</tspan>
  <tspan x="24" y="3444">- insert_dt : TIMESTAMP [DEFAULT CURRENT_TIMESTAMP]</tspan>
  <tspan x="24" y="3464"> </tspan>
  <tspan x="24" y="3484">### nf.nf_addresses</tspan>
  <tspan x="24" y="3504">- address_id : BIGINT [PK]</tspan>
  <tspan x="24" y="3524">- address_src_id : VARCHAR(200) [NOT NULL, UNIQUE]</tspan>
  <tspan x="24" y="3544">- zip_code : VARCHAR(30)</tspan>
  <tspan x="24" y="3564">- city_id : BIGINT [NOT NULL, FK -&gt; nf.nf_cities.city_id]</tspan>
  <tspan x="24" y="3584">- source_system : VARCHAR(100)</tspan>
  <tspan x="24" y="3604">- source_table : VARCHAR(100)</tspan>
  <tspan x="24" y="3624">- insert_dt : TIMESTAMP [DEFAULT CURRENT_TIMESTAMP]</tspan>
  <tspan x="24" y="3644"> </tspan>
  <tspan x="24" y="3664">### nf.nf_product_categories</tspan>
  <tspan x="24" y="3684">- product_category_id : BIGINT [PK]</tspan>
  <tspan x="24" y="3704">- product_category_src_id : VARCHAR(100) [NOT NULL, UNIQUE]</tspan>
  <tspan x="24" y="3724">- product_category_name : VARCHAR(100) [NOT NULL]</tspan>
  <tspan x="24" y="3744">- source_system : VARCHAR(100) [NOT NULL]</tspan>
  <tspan x="24" y="3764">- source_table : VARCHAR(100) [NOT NULL]</tspan>
  <tspan x="24" y="3784">- insert_dt : TIMESTAMP [NOT NULL, DEFAULT CURRENT_TIMESTAMP]</tspan>
  <tspan x="24" y="3804"> </tspan>
  <tspan x="24" y="3824">### nf.nf_promotion_types</tspan>
  <tspan x="24" y="3844">- promotion_type_id : BIGINT [PK]</tspan>
  <tspan x="24" y="3864">- promotion_type_src_id : VARCHAR(255) [NOT NULL, UNIQUE]</tspan>
  <tspan x="24" y="3884">- promotion_type_name : VARCHAR(100) [NOT NULL]</tspan>
  <tspan x="24" y="3904">- source_system : VARCHAR(100) [NOT NULL]</tspan>
  <tspan x="24" y="3924">- source_table : VARCHAR(100) [NOT NULL]</tspan>
  <tspan x="24" y="3944">- insert_dt : TIMESTAMP [NOT NULL, DEFAULT CURRENT_TIMESTAMP]</tspan>
  <tspan x="24" y="3964"> </tspan>
  <tspan x="24" y="3984">### nf.nf_shipping_partners</tspan>
  <tspan x="24" y="4004">- shipping_partner_id : BIGINT [PK]</tspan>
  <tspan x="24" y="4024">- shipping_partner_src_id : VARCHAR(100) [NOT NULL, UNIQUE]</tspan>
  <tspan x="24" y="4044">- shipping_partner_name : VARCHAR(100) [NOT NULL]</tspan>
  <tspan x="24" y="4064">- source_system : VARCHAR(100) [NOT NULL]</tspan>
  <tspan x="24" y="4084">- source_table : VARCHAR(100) [NOT NULL]</tspan>
  <tspan x="24" y="4104">- insert_dt : TIMESTAMP [NOT NULL, DEFAULT CURRENT_TIMESTAMP]</tspan>
  <tspan x="24" y="4124"> </tspan>
  <tspan x="24" y="4144">### nf.nf_customers</tspan>
  <tspan x="24" y="4164">- customer_id : BIGINT [PK]</tspan>
  <tspan x="24" y="4184">- customer_src_id : VARCHAR(255) [NOT NULL, UNIQUE]</tspan>
  <tspan x="24" y="4204">- customer_id_nk : VARCHAR(100) [NOT NULL]</tspan>
  <tspan x="24" y="4224">- gender : VARCHAR(20) [NOT NULL]</tspan>
  <tspan x="24" y="4244">- marital_status : VARCHAR(20) [NOT NULL]</tspan>
  <tspan x="24" y="4264">- birth_of_dt : DATE</tspan>
  <tspan x="24" y="4284">- membership_dt : DATE</tspan>
  <tspan x="24" y="4304">- last_purchase_dt : TIMESTAMP</tspan>
  <tspan x="24" y="4324">- address_id : BIGINT [NOT NULL, FK -&gt; nf.nf_addresses.address_id]</tspan>
  <tspan x="24" y="4344">- source_system : VARCHAR(100) [NOT NULL]</tspan>
  <tspan x="24" y="4364">- source_table : VARCHAR(100) [NOT NULL]</tspan>
  <tspan x="24" y="4384">- insert_dt : TIMESTAMP [NOT NULL, DEFAULT CURRENT_TIMESTAMP]</tspan>
  <tspan x="24" y="4404">- update_dt : TIMESTAMP [NOT NULL, DEFAULT CURRENT_TIMESTAMP]</tspan>
  <tspan x="24" y="4424"> </tspan>
  <tspan x="24" y="4444">### nf.nf_stores</tspan>
  <tspan x="24" y="4464">- store_id : BIGINT [PK]</tspan>
  <tspan x="24" y="4484">- store_src_id : VARCHAR(255) [NOT NULL, UNIQUE]</tspan>
  <tspan x="24" y="4504">- store_name : VARCHAR(100)</tspan>
  <tspan x="24" y="4524">- store_location_nk : VARCHAR(100)</tspan>
  <tspan x="24" y="4544">- address_id : BIGINT [NOT NULL, FK -&gt; nf.nf_addresses.address_id]</tspan>
  <tspan x="24" y="4564">- source_system : VARCHAR(100)</tspan>
  <tspan x="24" y="4584">- source_table : VARCHAR(100)</tspan>
  <tspan x="24" y="4604">- insert_dt : TIMESTAMP [DEFAULT CURRENT_TIMESTAMP]</tspan>
  <tspan x="24" y="4624">- update_dt : TIMESTAMP [DEFAULT CURRENT_TIMESTAMP]</tspan>
  <tspan x="24" y="4644"> </tspan>
  <tspan x="24" y="4664">### nf.nf_products</tspan>
  <tspan x="24" y="4684">- product_id : BIGINT [PK]</tspan>
  <tspan x="24" y="4704">- product_src_id : VARCHAR(255) [NOT NULL, UNIQUE]</tspan>
  <tspan x="24" y="4724">- product_id_nk : VARCHAR(100)</tspan>
  <tspan x="24" y="4744">- product_category_id : BIGINT [NOT NULL, FK -&gt; nf.nf_product_categories.product_category_id]</tspan>
  <tspan x="24" y="4764">- product_name : VARCHAR(100) [NOT NULL]</tspan>
  <tspan x="24" y="4784">- product_brand : VARCHAR(100) [NOT NULL]</tspan>
  <tspan x="24" y="4804">- product_stock : INTEGER</tspan>
  <tspan x="24" y="4824">- product_material : VARCHAR(100) [NOT NULL]</tspan>
  <tspan x="24" y="4844">- product_manufacture_dt : TIMESTAMP</tspan>
  <tspan x="24" y="4864">- product_expiry_dt : TIMESTAMP</tspan>
  <tspan x="24" y="4884">- source_system : VARCHAR(100) [NOT NULL]</tspan>
  <tspan x="24" y="4904">- source_table : VARCHAR(100) [NOT NULL]</tspan>
  <tspan x="24" y="4924">- insert_dt : TIMESTAMP [DEFAULT CURRENT_TIMESTAMP]</tspan>
  <tspan x="24" y="4944">- update_dt : TIMESTAMP [DEFAULT CURRENT_TIMESTAMP]</tspan>
  <tspan x="24" y="4964"> </tspan>
  <tspan x="24" y="4984">### nf.nf_promotions</tspan>
  <tspan x="24" y="5004">- promotion_id : BIGINT [PK]</tspan>
  <tspan x="24" y="5024">- promotion_src_id : VARCHAR(255) [NOT NULL, UNIQUE]</tspan>
  <tspan x="24" y="5044">- promotion_id_nk : VARCHAR(100)</tspan>
  <tspan x="24" y="5064">- promotion_type_id : BIGINT [NOT NULL, FK -&gt; nf.nf_promotion_types.promotion_type_id]</tspan>
  <tspan x="24" y="5084">- promotion_channel : VARCHAR(100) [NOT NULL]</tspan>
  <tspan x="24" y="5104">- promotion_start_dt : TIMESTAMP</tspan>
  <tspan x="24" y="5124">- promotion_end_dt : TIMESTAMP</tspan>
  <tspan x="24" y="5144">- source_system : VARCHAR(100) [NOT NULL]</tspan>
  <tspan x="24" y="5164">- source_table : VARCHAR(100) [NOT NULL]</tspan>
  <tspan x="24" y="5184">- insert_dt : TIMESTAMP [NOT NULL, DEFAULT CURRENT_TIMESTAMP]</tspan>
  <tspan x="24" y="5204"> </tspan>
  <tspan x="24" y="5224">### nf.nf_deliveries</tspan>
  <tspan x="24" y="5244">- delivery_id : BIGINT [PK]</tspan>
  <tspan x="24" y="5264">- delivery_src_id : VARCHAR(255) [NOT NULL, UNIQUE]</tspan>
  <tspan x="24" y="5284">- delivery_id_nk : VARCHAR(100)</tspan>
  <tspan x="24" y="5304">- shipping_partner_id : BIGINT [NOT NULL, FK -&gt; nf.nf_shipping_partners.shipping_partner_id]</tspan>
  <tspan x="24" y="5324">- delivery_type : VARCHAR(100) [NOT NULL]</tspan>
  <tspan x="24" y="5344">- delivery_status : VARCHAR(100) [NOT NULL]</tspan>
  <tspan x="24" y="5364">- source_system : VARCHAR(100) [NOT NULL]</tspan>
  <tspan x="24" y="5384">- source_table : VARCHAR(100) [NOT NULL]</tspan>
  <tspan x="24" y="5404">- insert_dt : TIMESTAMP [NOT NULL, DEFAULT CURRENT_TIMESTAMP]</tspan>
  <tspan x="24" y="5424"> </tspan>
  <tspan x="24" y="5444">### nf.nf_engagements</tspan>
  <tspan x="24" y="5464">- engagement_id : BIGINT [PK]</tspan>
  <tspan x="24" y="5484">- engagement_src_id : VARCHAR(100) [NOT NULL, UNIQUE]</tspan>
  <tspan x="24" y="5504">- engagement_id_nk : VARCHAR(100)</tspan>
  <tspan x="24" y="5524">- customer_support_calls : INTEGER</tspan>
  <tspan x="24" y="5544">- website_address : VARCHAR(250) [NOT NULL]</tspan>
  <tspan x="24" y="5564">- order_channel : VARCHAR(100) [NOT NULL]</tspan>
  <tspan x="24" y="5584">- customer_support_method : VARCHAR(100) [NOT NULL]</tspan>
  <tspan x="24" y="5604">- issue_status : VARCHAR(100) [NOT NULL]</tspan>
  <tspan x="24" y="5624">- app_usage : VARCHAR(100) [NOT NULL]</tspan>
  <tspan x="24" y="5644">- website_visits : INTEGER</tspan>
  <tspan x="24" y="5664">- social_media_engagement : VARCHAR(100) [NOT NULL]</tspan>
  <tspan x="24" y="5684">- source_system : VARCHAR(100) [NOT NULL]</tspan>
  <tspan x="24" y="5704">- source_table : VARCHAR(100) [NOT NULL]</tspan>
  <tspan x="24" y="5724">- insert_dt : TIMESTAMP [NOT NULL, DEFAULT CURRENT_TIMESTAMP]</tspan>
  <tspan x="24" y="5744"> </tspan>
  <tspan x="24" y="5764">### nf.nf_employees_scd</tspan>
  <tspan x="24" y="5784">- employee_id : BIGINT [PK PART]</tspan>
  <tspan x="24" y="5804">- employee_src_id : VARCHAR(255) [NOT NULL]</tspan>
  <tspan x="24" y="5824">- employee_name_nk : VARCHAR(100)</tspan>
  <tspan x="24" y="5844">- employee_position : VARCHAR(100)</tspan>
  <tspan x="24" y="5864">- employee_salary : NUMERIC(10,2)</tspan>
  <tspan x="24" y="5884">- employee_hire_date : DATE</tspan>
  <tspan x="24" y="5904">- start_dt : TIMESTAMP [NOT NULL, PK PART]</tspan>
  <tspan x="24" y="5924">- end_dt : TIMESTAMP [NOT NULL]</tspan>
  <tspan x="24" y="5944">- is_active : BOOLEAN [NOT NULL]</tspan>
  <tspan x="24" y="5964">- source_system : VARCHAR(100)</tspan>
  <tspan x="24" y="5984">- source_table : VARCHAR(100)</tspan>
  <tspan x="24" y="6004">- insert_dt : TIMESTAMP [DEFAULT CURRENT_TIMESTAMP]</tspan>
  <tspan x="24" y="6024">- update_dt : TIMESTAMP [DEFAULT CURRENT_TIMESTAMP]</tspan>
  <tspan x="24" y="6044"> </tspan>
  <tspan x="24" y="6064">### nf.nf_transactions</tspan>
  <tspan x="24" y="6084">- transaction_id : VARCHAR(100) [NOT NULL]</tspan>
  <tspan x="24" y="6104">- transaction_dt : TIMESTAMP [NOT NULL]</tspan>
  <tspan x="24" y="6124">- total_sales : NUMERIC(10,2) [NOT NULL, DEFAULT 0]</tspan>
  <tspan x="24" y="6144">- payment_method : VARCHAR(100) [NOT NULL, DEFAULT 'n.a.']</tspan>
  <tspan x="24" y="6164">- quantity : INTEGER [NOT NULL, DEFAULT 0]</tspan>
  <tspan x="24" y="6184">- unit_price : NUMERIC(10,2) [NOT NULL, DEFAULT 0]</tspan>
  <tspan x="24" y="6204">- discount_applied : NUMERIC(10,2) [NOT NULL, DEFAULT 0]</tspan>
  <tspan x="24" y="6224">- day_of_week : VARCHAR(20) [NOT NULL, DEFAULT 'n.a.']</tspan>
  <tspan x="24" y="6244">- week_of_year : INTEGER [NOT NULL, DEFAULT -1]</tspan>
  <tspan x="24" y="6264">- month_of_year : INTEGER [NOT NULL, DEFAULT -1]</tspan>
  <tspan x="24" y="6284">- store_id : BIGINT [NOT NULL, DEFAULT -1, FK -&gt; nf.nf_stores.store_id]</tspan>
  <tspan x="24" y="6304">- customer_id : BIGINT [NOT NULL, DEFAULT -1, FK -&gt; nf.nf_customers.customer_id]</tspan>
  <tspan x="24" y="6324">- promotion_id : BIGINT [NOT NULL, DEFAULT -1, FK -&gt; nf.nf_promotions.promotion_id]</tspan>
  <tspan x="24" y="6344">- delivery_id : BIGINT [NOT NULL, DEFAULT -1, FK -&gt; nf.nf_deliveries.delivery_id]</tspan>
  <tspan x="24" y="6364">- product_id : BIGINT [NOT NULL, DEFAULT -1, FK -&gt; nf.nf_products.product_id]</tspan>
  <tspan x="24" y="6384">- engagement_id : BIGINT [NOT NULL, DEFAULT -1, FK -&gt; nf.nf_engagements.engagement_id]</tspan>
  <tspan x="24" y="6404">- city_id : BIGINT [NOT NULL, DEFAULT -1, FK -&gt; nf.nf_cities.city_id]</tspan>
  <tspan x="24" y="6424">- employee_id : BIGINT [NOT NULL, DEFAULT -1]</tspan>
  <tspan x="24" y="6444">- row_sig : TEXT [NOT NULL, UNIQUE INDEX ux_nf_transactions_row_sig]</tspan>
  <tspan x="24" y="6464">- source_system : VARCHAR(100) [NOT NULL]</tspan>
  <tspan x="24" y="6484">- source_table : VARCHAR(100) [NOT NULL]</tspan>
  <tspan x="24" y="6504">- insert_dt : TIMESTAMP [NOT NULL, DEFAULT CURRENT_TIMESTAMP]</tspan>
  <tspan x="24" y="6524"> </tspan>
  <tspan x="24" y="6544">## DIM</tspan>
  <tspan x="24" y="6564"> </tspan>
  <tspan x="24" y="6584">### dim.dim_customers</tspan>
  <tspan x="24" y="6604">- customer_surr_id : BIGINT [PK]</tspan>
  <tspan x="24" y="6624">- customer_src_id : BIGINT [NOT NULL]</tspan>
  <tspan x="24" y="6644">- source_system : VARCHAR(100) [NOT NULL]</tspan>
  <tspan x="24" y="6664">- source_table : VARCHAR(100) [NOT NULL]</tspan>
  <tspan x="24" y="6684">- gender : VARCHAR(20) [NOT NULL]</tspan>
  <tspan x="24" y="6704">- marital_status : VARCHAR(20) [NOT NULL]</tspan>
  <tspan x="24" y="6724">- birth_of_dt : DATE</tspan>
  <tspan x="24" y="6744">- membership_dt : DATE</tspan>
  <tspan x="24" y="6764">- last_purchase_dt : TIMESTAMP</tspan>
  <tspan x="24" y="6784">- customer_zip_code : VARCHAR(30) [NOT NULL]</tspan>
  <tspan x="24" y="6804">- customer_city : VARCHAR(100) [NOT NULL]</tspan>
  <tspan x="24" y="6824">- customer_state : VARCHAR(100) [NOT NULL]</tspan>
  <tspan x="24" y="6844">- insert_dt : TIMESTAMP [NOT NULL, DEFAULT CURRENT_TIMESTAMP]</tspan>
  <tspan x="24" y="6864">- update_dt : TIMESTAMP [NOT NULL, DEFAULT CURRENT_TIMESTAMP]</tspan>
  <tspan x="24" y="6884"> </tspan>
  <tspan x="24" y="6904">### dim.dim_stores</tspan>
  <tspan x="24" y="6924">- store_surr_id : BIGINT [PK]</tspan>
  <tspan x="24" y="6944">- store_src_id : BIGINT [NOT NULL]</tspan>
  <tspan x="24" y="6964">- source_system : VARCHAR(100) [NOT NULL]</tspan>
  <tspan x="24" y="6984">- source_table : VARCHAR(100) [NOT NULL]</tspan>
  <tspan x="24" y="7004">- store_name : VARCHAR(100)</tspan>
  <tspan x="24" y="7024">- store_zip_code : VARCHAR(30) [NOT NULL]</tspan>
  <tspan x="24" y="7044">- store_city : VARCHAR(100) [NOT NULL]</tspan>
  <tspan x="24" y="7064">- store_state : VARCHAR(100) [NOT NULL]</tspan>
  <tspan x="24" y="7084">- store_location : VARCHAR(100) [NOT NULL]</tspan>
  <tspan x="24" y="7104">- insert_dt : TIMESTAMP [NOT NULL, DEFAULT CURRENT_TIMESTAMP]</tspan>
  <tspan x="24" y="7124">- update_dt : TIMESTAMP [NOT NULL, DEFAULT CURRENT_TIMESTAMP]</tspan>
  <tspan x="24" y="7144"> </tspan>
  <tspan x="24" y="7164">### dim.dim_products</tspan>
  <tspan x="24" y="7184">- product_surr_id : BIGINT [PK]</tspan>
  <tspan x="24" y="7204">- product_src_id : BIGINT [NOT NULL]</tspan>
  <tspan x="24" y="7224">- source_system : VARCHAR(100) [NOT NULL]</tspan>
  <tspan x="24" y="7244">- source_table : VARCHAR(100) [NOT NULL]</tspan>
  <tspan x="24" y="7264">- product_category : VARCHAR(100) [NOT NULL]</tspan>
  <tspan x="24" y="7284">- product_name : VARCHAR(100) [NOT NULL]</tspan>
  <tspan x="24" y="7304">- product_brand : VARCHAR(100) [NOT NULL]</tspan>
  <tspan x="24" y="7324">- product_stock : INTEGER</tspan>
  <tspan x="24" y="7344">- product_material : VARCHAR(100) [NOT NULL]</tspan>
  <tspan x="24" y="7364">- product_manufacture_dt : TIMESTAMP</tspan>
  <tspan x="24" y="7384">- product_expiry_dt : TIMESTAMP</tspan>
  <tspan x="24" y="7404">- insert_dt : TIMESTAMP [NOT NULL, DEFAULT CURRENT_TIMESTAMP]</tspan>
  <tspan x="24" y="7424">- update_dt : TIMESTAMP [NOT NULL, DEFAULT CURRENT_TIMESTAMP]</tspan>
  <tspan x="24" y="7444"> </tspan>
  <tspan x="24" y="7464">### dim.dim_promotions</tspan>
  <tspan x="24" y="7484">- promotion_surr_id : BIGINT [PK]</tspan>
  <tspan x="24" y="7504">- promotion_src_id : BIGINT [NOT NULL]</tspan>
  <tspan x="24" y="7524">- source_system : VARCHAR(100) [NOT NULL]</tspan>
  <tspan x="24" y="7544">- source_table : VARCHAR(100) [NOT NULL]</tspan>
  <tspan x="24" y="7564">- promotion_channel : VARCHAR(100) [NOT NULL]</tspan>
  <tspan x="24" y="7584">- promotion_type : VARCHAR(100) [NOT NULL]</tspan>
  <tspan x="24" y="7604">- promotion_start_dt : TIMESTAMP</tspan>
  <tspan x="24" y="7624">- promotion_end_dt : TIMESTAMP</tspan>
  <tspan x="24" y="7644">- insert_dt : TIMESTAMP [NOT NULL, DEFAULT CURRENT_TIMESTAMP]</tspan>
  <tspan x="24" y="7664">- update_dt : TIMESTAMP [NOT NULL, DEFAULT CURRENT_TIMESTAMP]</tspan>
  <tspan x="24" y="7684"> </tspan>
  <tspan x="24" y="7704">### dim.dim_deliveries</tspan>
  <tspan x="24" y="7724">- delivery_surr_id : BIGINT [PK]</tspan>
  <tspan x="24" y="7744">- delivery_src_id : BIGINT [NOT NULL]</tspan>
  <tspan x="24" y="7764">- source_system : VARCHAR(100) [NOT NULL]</tspan>
  <tspan x="24" y="7784">- source_table : VARCHAR(100) [NOT NULL]</tspan>
  <tspan x="24" y="7804">- delivery_type : VARCHAR(100) [NOT NULL]</tspan>
  <tspan x="24" y="7824">- delivery_status : VARCHAR(100) [NOT NULL]</tspan>
  <tspan x="24" y="7844">- shipping_partner : VARCHAR(100) [NOT NULL]</tspan>
  <tspan x="24" y="7864">- insert_dt : TIMESTAMP [NOT NULL, DEFAULT CURRENT_TIMESTAMP]</tspan>
  <tspan x="24" y="7884">- update_dt : TIMESTAMP [NOT NULL, DEFAULT CURRENT_TIMESTAMP]</tspan>
  <tspan x="24" y="7904"> </tspan>
  <tspan x="24" y="7924">### dim.dim_engagements</tspan>
  <tspan x="24" y="7944">- engagement_surr_id : BIGINT [PK]</tspan>
  <tspan x="24" y="7964">- engagement_src_id : BIGINT [NOT NULL]</tspan>
  <tspan x="24" y="7984">- source_system : VARCHAR(100) [NOT NULL]</tspan>
  <tspan x="24" y="8004">- source_table : VARCHAR(100) [NOT NULL]</tspan>
  <tspan x="24" y="8024">- customer_support_calls : INTEGER</tspan>
  <tspan x="24" y="8044">- website_address : VARCHAR(250) [NOT NULL]</tspan>
  <tspan x="24" y="8064">- order_channel : VARCHAR(100) [NOT NULL]</tspan>
  <tspan x="24" y="8084">- customer_support_method : VARCHAR(100) [NOT NULL]</tspan>
  <tspan x="24" y="8104">- issue_status : VARCHAR(100) [NOT NULL]</tspan>
  <tspan x="24" y="8124">- app_usage : VARCHAR(100) [NOT NULL]</tspan>
  <tspan x="24" y="8144">- website_visits : INTEGER</tspan>
  <tspan x="24" y="8164">- social_media_engagement : VARCHAR(100) [NOT NULL]</tspan>
  <tspan x="24" y="8184">- insert_dt : TIMESTAMP [NOT NULL, DEFAULT CURRENT_TIMESTAMP]</tspan>
  <tspan x="24" y="8204">- update_dt : TIMESTAMP [NOT NULL, DEFAULT CURRENT_TIMESTAMP]</tspan>
  <tspan x="24" y="8224"> </tspan>
  <tspan x="24" y="8244">### dim.dim_employees_scd</tspan>
  <tspan x="24" y="8264">- employee_surr_id : BIGINT [PK]</tspan>
  <tspan x="24" y="8284">- employee_src_id : VARCHAR(255) [NOT NULL]</tspan>
  <tspan x="24" y="8304">- employee_name : VARCHAR(100)</tspan>
  <tspan x="24" y="8324">- employee_position : VARCHAR(100)</tspan>
  <tspan x="24" y="8344">- employee_salary : NUMERIC(10,2)</tspan>
  <tspan x="24" y="8364">- employee_hire_date : DATE</tspan>
  <tspan x="24" y="8384">- start_dt : TIMESTAMP [NOT NULL]</tspan>
  <tspan x="24" y="8404">- end_dt : TIMESTAMP [NOT NULL]</tspan>
  <tspan x="24" y="8424">- is_active : BOOLEAN [NOT NULL]</tspan>
  <tspan x="24" y="8444">- source_system : VARCHAR(100) [NOT NULL]</tspan>
  <tspan x="24" y="8464">- source_table : VARCHAR(100) [NOT NULL]</tspan>
  <tspan x="24" y="8484">- insert_dt : TIMESTAMP [DEFAULT CURRENT_TIMESTAMP]</tspan>
  <tspan x="24" y="8504">- update_dt : TIMESTAMP [DEFAULT CURRENT_TIMESTAMP]</tspan>
  <tspan x="24" y="8524"> </tspan>
  <tspan x="24" y="8544">### dim.dim_dates</tspan>
  <tspan x="24" y="8564">- date_surr_id : BIGINT [PK]</tspan>
  <tspan x="24" y="8584">- full_date : DATE [NOT NULL, UNIQUE]</tspan>
  <tspan x="24" y="8604">- day_of_month : INTEGER [NOT NULL]</tspan>
  <tspan x="24" y="8624">- month_of_year : INTEGER [NOT NULL]</tspan>
  <tspan x="24" y="8644">- year_of_date : INTEGER [NOT NULL]</tspan>
  <tspan x="24" y="8664">- quarter_of_year : INTEGER [NOT NULL]</tspan>
  <tspan x="24" y="8684">- week_of_year : INTEGER [NOT NULL]</tspan>
  <tspan x="24" y="8704">- day_name : VARCHAR(20) [NOT NULL]</tspan>
  <tspan x="24" y="8724">- month_name : VARCHAR(20) [NOT NULL]</tspan>
  <tspan x="24" y="8744">- is_weekend : BOOLEAN [NOT NULL]</tspan>
  <tspan x="24" y="8764">- is_month_start : BOOLEAN [NOT NULL]</tspan>
  <tspan x="24" y="8784">- is_month_end : BOOLEAN [NOT NULL]</tspan>
  <tspan x="24" y="8804">- is_quarter_start : BOOLEAN [NOT NULL]</tspan>
  <tspan x="24" y="8824">- is_quarter_end : BOOLEAN [NOT NULL]</tspan>
  <tspan x="24" y="8844">- is_year_start : BOOLEAN [NOT NULL]</tspan>
  <tspan x="24" y="8864">- is_year_end : BOOLEAN [NOT NULL]</tspan>
  <tspan x="24" y="8884">- insert_dt : TIMESTAMP [NOT NULL, DEFAULT CURRENT_TIMESTAMP]</tspan>
  <tspan x="24" y="8904"> </tspan>
  <tspan x="24" y="8924">### dim.fct_transactions_dd_dd</tspan>
  <tspan x="24" y="8944">- transaction_src_id : VARCHAR(100) [NOT NULL]</tspan>
  <tspan x="24" y="8964">- total_sales : NUMERIC(10,2) [NOT NULL, DEFAULT 0]</tspan>
  <tspan x="24" y="8984">- quantity : INTEGER [NOT NULL, DEFAULT 0]</tspan>
  <tspan x="24" y="9004">- unit_price : NUMERIC(10,2) [NOT NULL, DEFAULT 0]</tspan>
  <tspan x="24" y="9024">- discount_applied : NUMERIC(10,2) [NOT NULL, DEFAULT 0]</tspan>
  <tspan x="24" y="9044">- payment_method : VARCHAR(100) [NOT NULL, DEFAULT 'n.a.']</tspan>
  <tspan x="24" y="9064">- product_surr_id : BIGINT [NOT NULL, DEFAULT -1, FK -&gt; dim.dim_products.product_surr_id]</tspan>
  <tspan x="24" y="9084">- promotion_surr_id : BIGINT [NOT NULL, DEFAULT -1, FK -&gt; dim.dim_promotions.promotion_surr_id]</tspan>
  <tspan x="24" y="9104">- delivery_surr_id : BIGINT [NOT NULL, DEFAULT -1, FK -&gt; dim.dim_deliveries.delivery_surr_id]</tspan>
  <tspan x="24" y="9124">- engagement_surr_id : BIGINT [NOT NULL, DEFAULT -1, FK -&gt; dim.dim_engagements.engagement_surr_id]</tspan>
  <tspan x="24" y="9144">- store_surr_id : BIGINT [NOT NULL, DEFAULT -1, FK -&gt; dim.dim_stores.store_surr_id]</tspan>
  <tspan x="24" y="9164">- customer_surr_id : BIGINT [NOT NULL, DEFAULT -1, FK -&gt; dim.dim_customers.customer_surr_id]</tspan>
  <tspan x="24" y="9184">- employee_surr_id : BIGINT [NOT NULL, DEFAULT -1, FK -&gt; dim.dim_employees_scd.employee_surr_id]</tspan>
  <tspan x="24" y="9204">- transaction_date_sk : BIGINT [NOT NULL, FK -&gt; dim.dim_dates.date_surr_id]</tspan>
  <tspan x="24" y="9224">- transaction_date : DATE [NOT NULL]</tspan>
  <tspan x="24" y="9244">- source_system : VARCHAR(100) [NOT NULL]</tspan>
  <tspan x="24" y="9264">- source_table : VARCHAR(100) [NOT NULL]</tspan>
  <tspan x="24" y="9284">- insert_dt : TIMESTAMP [NOT NULL, DEFAULT CURRENT_TIMESTAMP]</tspan>
  <tspan x="24" y="9304">- update_dt : TIMESTAMP [NOT NULL, DEFAULT CURRENT_TIMESTAMP]</tspan>
  <tspan x="24" y="9324">- PK : (transaction_date, transaction_src_id, product_surr_id, promotion_surr_id, delivery_surr_id, engagement_surr_id, store_surr_id, customer_surr_id, employee_surr_id)</tspan>
</text>
</svg>